<?xml version="1.0" encoding="utf-8"?>
<!-- Generator: Adobe Illustrator 22.0.1, SVG Export Plug-In . SVG Version: 6.00 Build 0)  -->
<svg version="1.1" id="图层_1" xmlns="http://www.w3.org/2000/svg" xmlns:xlink="http://www.w3.org/1999/xlink" x="0px" y="0px"
	 viewBox="0 0 32 32" style="enable-background:new 0 0 32 32;" xml:space="preserve">
<style type="text/css">
	.st0{fill:url(#SVGID_1_);}
</style>
<linearGradient id="SVGID_1_" gradientUnits="userSpaceOnUse" x1="3" y1="16.5" x2="29" y2="16.5">
	<stop  offset="0" style="stop-color:#FD7962"/>
	<stop  offset="1" style="stop-color:#FB635A"/>
</linearGradient>
<path class="st0" d="M26,4H6C4.3,4,3,5.3,3,7v16c0,1.7,1.3,3,3,3h6.6l2.7,2.7c0.2,0.2,0.5,0.3,0.7,0.3c0.3,0,0.5-0.1,0.7-0.3
	l2.7-2.7H26c1.7,0,3-1.3,3-3V7C29,5.3,27.7,4,26,4z M10.5,16C9.7,16,9,15.3,9,14.5S9.7,13,10.5,13s1.5,0.7,1.5,1.5S11.3,16,10.5,16z
	 M16.5,16c-0.8,0-1.5-0.7-1.5-1.5s0.7-1.5,1.5-1.5s1.5,0.7,1.5,1.5S17.3,16,16.5,16z M22.5,16c-0.8,0-1.5-0.7-1.5-1.5
	s0.7-1.5,1.5-1.5s1.5,0.7,1.5,1.5S23.3,16,22.5,16z"/>
</svg>
