<?xml version="1.0" encoding="utf-8"?>
<!-- Generator: Adobe Illustrator 22.0.1, SVG Export Plug-In . SVG Version: 6.00 Build 0)  -->
<svg version="1.1" id="图层_1" xmlns="http://www.w3.org/2000/svg" xmlns:xlink="http://www.w3.org/1999/xlink" x="0px" y="0px"
	 viewBox="0 0 32 32" style="enable-background:new 0 0 32 32;" xml:space="preserve">
<style type="text/css">
	.st0{fill:url(#SVGID_1_);}
</style>
<linearGradient id="SVGID_1_" gradientUnits="userSpaceOnUse" x1="2" y1="16" x2="30.0361" y2="16">
	<stop  offset="0" style="stop-color:#FD7962"/>
	<stop  offset="1" style="stop-color:#FB635A"/>
</linearGradient>
<path class="st0" d="M29.6,13.2L17.9,3.6c-1-0.8-2.7-0.8-3.7,0L2.4,13.3C2,13.5,1.9,14,2.1,14.4C2.2,14.8,2.6,15,3,15h1v11.4
	C4,27.9,5.1,29,6.6,29H13c0.6,0,1-0.4,1-1v-4.6c0-0.7,1.1-1.4,2-1.4s2.1,0.7,2.1,1.4V28c0,0.6,0.4,1,1,1h6.5c1.5,0,2.5-1,2.5-2.6V15
	h1c0.4,0,0.8-0.3,0.9-0.7S30,13.5,29.6,13.2z"/>
</svg>
