<?xml version="1.0" encoding="utf-8"?>
<!-- Generator: Adobe Illustrator 22.0.1, SVG Export Plug-In . SVG Version: 6.00 Build 0)  -->
<svg version="1.1" id="图层_1" xmlns="http://www.w3.org/2000/svg" xmlns:xlink="http://www.w3.org/1999/xlink" x="0px" y="0px"
	 viewBox="0 0 32 32" style="enable-background:new 0 0 32 32;" xml:space="preserve">
<style type="text/css">
	.st0{fill:url(#SVGID_1_);}
</style>
<linearGradient id="SVGID_1_" gradientUnits="userSpaceOnUse" x1="3.9608" y1="16.5" x2="27.9392" y2="16.5">
	<stop  offset="0" style="stop-color:#FD7962"/>
	<stop  offset="1" style="stop-color:#FB635A"/>
</linearGradient>
<path class="st0" d="M20.3,19.8c2.7-1.5,4.6-4.5,4.6-7.8c0-5-4-9-9-9s-9,4-9,9c0,3.4,1.8,6.3,4.6,7.8c-3.8,1.5-6.7,4.8-7.5,9
	c-0.1,0.3,0,0.6,0.2,0.8C4.3,29.9,4.6,30,4.9,30h22c0.3,0,0.6-0.1,0.8-0.4c0.2-0.2,0.3-0.5,0.2-0.8C27.1,24.6,24.1,21.3,20.3,19.8z"
	/>
</svg>
